# xmcd CD database file
#
# Track frame offsets:
#	150
#	15339
#	57844
#	77698
#	124775
#	148271
#	177860
#
# Disc length: 2856 seconds
#
# Revision: 0
# Processed by: cddbd v1.5.2PL0 Copyright (c) Steve Scherf et al.
# Submitted via: CDex 1.70beta2
#
DISCID=540b2607
DTITLE=Young, Geoff, Trio [CDN-04-Jazz) - In Between
DYEAR=2004
DGENRE=Jazz
TTITLE0=AudioTrWhat A Womder World
TTITLE1=Drinking Songs
TTITLE2=Chance Meeting
TTITLE3=Tea At High Noon
TTITLE4=In Between
TTITLE5=The Three Tauras
TTITLE6=So Long
EXTD=YEAR: 2004
EXTT0=
EXTT1=
EXTT2=
EXTT3=
EXTT4=
EXTT5=
EXTT6=
PLAYORDER=
